<?xml version="1.0" encoding="utf-8"?><!DOCTYPE svg PUBLIC "-//W3C//DTD SVG 1.1//EN" "http://www.w3.org/Graphics/SVG/1.1/DTD/svg11.dtd"><svg viewBox="0 0 456.804 512" xmlns="http://www.w3.org/2000/svg" xmlns:xlink="http://www.w3.org/1999/xlink"><style>:root>svg{display:none}:root>svg:target{display:block}</style><svg viewBox="0 0 384 512" id="css" xmlns="http://www.w3.org/2000/svg"><!--! Font Awesome Free 6.0.0-beta2 by @fontawesome - https://fontawesome.com License - https://fontawesome.com/license/free (Icons: CC BY 4.0, Fonts: SIL OFL 1.1, Code: MIT License)--><path d="M0 32l34.9 395.8L192 480l157.1-52.2L384 32H0zm313.1 80l-4.8 47.3L193 208.6l-.3.1h111.5l-12.8 146.6-98.2 28.7-98.8-29.2-6.4-73.9h48.9l3.2 38.3 52.6 13.3 54.7-15.4 3.7-61.6-166.3-.5v-.1l-.2.1-3.6-46.3L193.1 162l6.5-2.7H76.7L70.9 112h242.2z"/></svg><svg viewBox="0 0 256 256" id="figma" xmlns="http://www.w3.org/2000/svg"><path d="M183.04 94A39.987 39.987 0 00162 20.001H94a39.987 39.987 0 00-21.04 74A39.964 39.964 0 0072.961 162 39.992 39.992 0 10134 196v-39.47A39.98 39.98 0 10183.04 94zM190 60.001a28.031 28.031 0 01-27.98 28L162 88l-.039.001L134 88V32.001h28a28.031 28.031 0 0128 28zm-124 0a28.031 28.031 0 0128-28h28V88H93.981A28.031 28.031 0 0166 60.001zM66 128a28.031 28.031 0 0127.981-28l.019.001h28v55.998L94 156a28.031 28.031 0 01-28-28zm28 95.999A28 28 0 1194 168h28v28a28.031 28.031 0 01-28 27.999zM162 156a28 28 0 01-.039-55.999H162.02A28 28 0 01162 156z"/></svg><svg viewBox="0 0 50 50" id="github" xmlns="http://www.w3.org/2000/svg"><path d="M33 29c-1.797 0-3 1.516-3 4s.89 5.047 3 5c2.219-.05 3.02-2.223 3-5-.016-2.484-1.207-4-3-4zm11.262-11.934c.273-1.343.39-6.101-1.582-11.066 0 0-4.532.496-11.383 5.2-1.434-.4-3.867-.598-6.297-.598-2.43 0-4.86.199-6.3.593C11.851 6.496 7.323 6 7.323 6c-1.976 4.965-1.879 9.61-1.586 11.066C3.418 19.586 2 22.61 2 26.742c0 17.965 14.906 18.254 18.668 18.254.852 0 2.543 0 4.332.004 1.79-.004 3.484-.004 4.332-.004 3.762 0 18.668-.289 18.668-18.254 0-4.133-1.418-7.156-3.738-9.676zM25.14 43H25c-9.43 0-16.844-1.34-16.844-10.504 0-2.195.778-4.23 2.617-5.922 3.07-2.82 8.262-1.328 14.157-1.328h.14c5.895 0 11.09-1.488 14.16 1.328 1.84 1.692 2.614 3.727 2.614 5.922C41.844 41.66 34.57 43 25.14 43zM17 29c-1.793 0-3 2.016-3 4.5s1.207 4.5 3 4.5c1.797 0 3-2.016 3-4.5S18.797 29 17 29z"/></svg><svg viewBox="0 0 456.804 456.804" id="html" xmlns="http://www.w3.org/2000/svg"><path d="M27.405 0l36.542 410.56 163.882 46.244 165.022-46.244L429.398 0H27.405zm322.62 133.904h-192.43l4.283 51.676h183.866l-14.273 155.315-102.499 28.26v.287h-1.143l-103.356-28.547-6.28-79.367h49.965l3.711 39.971 55.959 15.126 56.245-15.126 6.283-65.097H115.625l-13.418-152.46h252.392l-4.574 49.962z"/></svg><svg viewBox="0 0 32 32" id="javascript" xmlns="http://www.w3.org/2000/svg"><path d="M0 0h32v32H0zm29.38 24.37c-.234-1.464-1.188-2.688-4.005-3.833-.979-.458-2.073-.781-2.396-1.521-.12-.438-.141-.677-.063-.938.203-.865 1.219-1.12 2.021-.88.521.161 1 .557 1.302 1.198 1.38-.901 1.38-.901 2.339-1.5-.359-.557-.536-.802-.781-1.036-.839-.943-1.958-1.422-3.776-1.38l-.943.12c-.901.219-1.76.698-2.281 1.339-1.516 1.719-1.078 4.719.76 5.964 1.818 1.359 4.479 1.656 4.823 2.938.318 1.563-1.161 2.063-2.625 1.88-1.078-.24-1.677-.781-2.339-1.781l-2.438 1.401c.276.641.599.917 1.078 1.479 2.318 2.339 8.12 2.219 9.161-1.339.036-.12.318-.943.099-2.198zm-11.979-9.662h-2.995c0 2.583-.016 5.151-.016 7.74 0 1.641.083 3.151-.182 3.615-.443.917-1.573.802-2.089.641-.526-.26-.797-.62-1.104-1.141-.089-.141-.151-.26-.172-.26l-2.432 1.5c.406.839 1 1.563 1.766 2.021 1.141.682 2.672.901 4.276.542 1.042-.302 1.943-.922 2.411-1.88.682-1.24.536-2.76.531-4.464.016-2.74 0-5.479 0-8.24z"/></svg><svg fill-rule="evenodd" clip-rule="evenodd" viewBox="0 0 50 50" id="react" xmlns="http://www.w3.org/2000/svg"><path d="M34.555 3.984c-.78-.026-1.596.11-2.414.375-1.637.53-3.352 1.565-5.112 2.996a31.739 31.739 0 00-2.084 1.883 31.578 31.578 0 00-2.039-1.836c-1.758-1.43-3.468-2.464-5.101-2.994-1.633-.53-3.258-.546-4.592.225-1.334.77-2.132 2.184-2.49 3.863-.358 1.679-.319 3.678.04 5.916.126.778.304 1.593.507 2.424-.763.231-1.503.474-2.19.742-2.072.81-3.787 1.778-5.035 2.93-1.249 1.152-2.055 2.55-2.055 4.086 0 1.535.806 2.932 2.055 4.084C5.293 29.83 7.008 30.8 9.08 31.609c.734.287 1.53.545 2.35.79a32.188 32.188 0 00-.698 3.187c-.36 2.24-.397 4.24-.039 5.922.36 1.682 1.157 3.105 2.498 3.879 1.341.774 2.973.755 4.61.224 1.636-.53 3.35-1.562 5.11-2.994a31.643 31.643 0 002.066-1.863c.695.677 1.389 1.314 2.076 1.873 1.758 1.43 3.47 2.463 5.103 2.992 1.633.53 3.258.546 4.592-.224 1.334-.77 2.13-2.185 2.488-3.864.358-1.678.319-3.676-.04-5.914a32.164 32.164 0 00-.7-3.197c.848-.25 1.668-.515 2.424-.81 2.072-.81 3.787-1.78 5.035-2.932 1.249-1.152 2.055-2.549 2.055-4.084 0-1.536-.806-2.934-2.055-4.086-1.248-1.152-2.963-2.12-5.035-2.93a30.001 30.001 0 00-2.223-.752c.205-.836.386-1.657.512-2.44.36-2.24.398-4.24.039-5.923-.359-1.683-1.159-3.103-2.5-3.877-.67-.387-1.414-.575-2.193-.602zm-.092 2.036c.49.013.907.13 1.264.335.714.413 1.241 1.215 1.523 2.536.282 1.32.272 3.104-.06 5.173-.114.709-.28 1.46-.467 2.229a46.398 46.398 0 00-6.676-1.072 48.192 48.192 0 00-3.674-4.518 29.432 29.432 0 011.947-1.76c1.626-1.322 3.165-2.222 4.45-2.638.642-.209 1.204-.299 1.693-.285zm-18.977.005c.492-.013 1.055.077 1.7.286 1.288.417 2.83 1.317 4.457 2.64a29.362 29.362 0 011.906 1.723 48.3 48.3 0 00-3.701 4.556 46.219 46.219 0 00-6.647 1.08 28.875 28.875 0 01-.465-2.216c-.332-2.071-.34-3.856-.058-5.18.282-1.324.814-2.133 1.535-2.549.36-.208.781-.326 1.273-.34zm9.49 6.118c.815.886 1.63 1.856 2.438 2.9A57.87 57.87 0 0025 14.99c-.833 0-1.652.02-2.46.055a45.06 45.06 0 012.437-2.902zM25 17.01c1.36 0 2.685.056 3.975.15a56.84 56.84 0 012.58 4.057 57.157 57.157 0 011.98 3.752 57.171 57.171 0 01-2.008 3.802 57.142 57.142 0 01-2.011 3.215c-1.457.122-2.966.19-4.516.19a54.15 54.15 0 01-4.62-.2 57.175 57.175 0 01-1.978-3.165 57.159 57.159 0 01-2.002-3.795 57.037 57.037 0 012.012-3.817 56.736 56.736 0 012.568-4.035A54.3 54.3 0 0125 17.01zm6.549.4c1.648.206 3.196.491 4.637.834a45.018 45.018 0 01-1.592 4.375c-.414-.798-.843-1.6-1.307-2.402a60.068 60.068 0 00-1.738-2.807zm-13.205.016c-.58.89-1.15 1.799-1.7 2.752-.469.813-.907 1.625-1.326 2.433a45 45 0 01-1.58-4.35 42.914 42.914 0 014.606-.835zm19.82 1.35c.709.214 1.394.438 2.022.683 1.91.746 3.42 1.63 4.4 2.533.98.904 1.404 1.766 1.404 2.602 0 .836-.425 1.698-1.404 2.601-.98.904-2.49 1.787-4.4 2.534-.698.272-1.465.52-2.262.753a49.523 49.523 0 00-2.158-5.466 48.431 48.431 0 002.398-6.24zm-26.361.01a48.324 48.324 0 002.367 6.177A49.526 49.526 0 0012 30.46a27.8 27.8 0 01-2.186-.732c-1.91-.747-3.42-1.63-4.4-2.534-.98-.903-1.404-1.765-1.404-2.601 0-.836.425-1.698 1.404-2.602.98-.904 2.49-1.787 4.4-2.533a27.487 27.487 0 011.989-.674zM25 20c-2.75 0-5 2.25-5 5s2.25 5 5 5 5-2.25 5-5-2.25-5-5-5zm-9.658 7.365c.42.813.858 1.628 1.33 2.446.369.639.746 1.261 1.129 1.873a42.765 42.765 0 01-3.819-.702c.382-1.167.838-2.38 1.36-3.617zm19.277 0c.524 1.24.98 2.455 1.363 3.625a42.87 42.87 0 01-3.83.7c.388-.62.771-1.25 1.145-1.897.468-.811.904-1.621 1.322-2.428zm-21.213 5.559a45.9 45.9 0 005.852.972 49.317 49.317 0 004.29 5.391 29.372 29.372 0 01-1.927 1.744c-1.626 1.323-3.167 2.22-4.451 2.637-1.284.416-2.243.361-2.957-.05-.714-.413-1.24-1.215-1.522-2.536-.281-1.32-.273-3.103.059-5.172.15-.939.376-1.944.656-2.986zm23.155.008a29.92 29.92 0 01.66 3.002c.332 2.07.34 3.855.058 5.18-.282 1.324-.81 2.134-1.531 2.55-.72.416-1.688.47-2.977.053-1.288-.418-2.83-1.317-4.457-2.64a29.44 29.44 0 01-1.941-1.759 49.237 49.237 0 004.32-5.418 46 46 0 005.868-.968zm-14.694 1.17c1.027.056 2.067.093 3.133.093 1.03 0 2.037-.035 3.031-.088a46.038 46.038 0 01-3.084 3.74 46.198 46.198 0 01-3.08-3.745z"/></svg><svg viewBox="0 0 50 50" id="sass" xmlns="http://www.w3.org/2000/svg"><path d="M43.03 27.802a10.286 10.286 0 00-4.53 1.054c-.464-.926-.934-1.741-1.013-2.347-.092-.707-.199-1.129-.088-1.972.111-.843.599-2.036.591-2.125-.007-.089-.109-.518-1.117-.526-1.008-.007-1.87.194-1.972.46a9.797 9.797 0 00-.416 1.49c-.177.914-2.012 4.174-3.055 5.879-.341-.666-.631-1.252-.691-1.716-.092-.707-.199-1.129-.088-1.972.111-.843.599-2.036.591-2.125-.007-.089-.109-.518-1.117-.526-1.008-.007-1.87.194-1.972.46-.102.266-.21.888-.416 1.49-.207.602-2.647 6.039-3.286 7.448a43.557 43.557 0 01-.809 1.689l-.001-.002-.034.071c-.171.335-.273.521-.273.521l.003.007c-.136.246-.281.475-.353.475-.05 0-.151-.656.022-1.555.363-1.886 1.235-4.828 1.227-4.929-.004-.052.162-.564-.57-.833-.711-.26-.965.174-1.03.175-.063.001-.11.153-.11.153s.793-3.308-1.512-3.308c-1.44 0-3.436 1.576-4.42 3.004a1269.137 1269.137 0 00-4.974 2.727l-.108-.118c-2.794-2.981-7.958-5.089-7.739-9.096.08-1.457.586-5.293 9.924-9.946 7.649-3.812 13.773-2.763 14.831-.438 1.512 3.321-3.273 9.494-11.216 10.384-3.027.339-4.62-.834-5.017-1.271-.417-.46-.479-.481-.635-.394-.254.141-.093.547 0 .789.237.617 1.21 1.712 2.87 2.256 1.46.479 5.013.742 9.311-.92 4.813-1.862 8.571-7.041 7.468-11.37-1.123-4.403-8.423-5.85-15.332-3.396-4.112 1.461-8.563 3.754-11.764 6.747-3.806 3.56-4.412 6.658-4.162 7.952.889 4.6 7.228 7.595 9.767 9.815l-.35.193c-1.273.63-6.105 3.159-7.314 5.831-1.371 3.031.218 5.206 1.271 5.499 3.26.907 6.606-.725 8.404-3.407 1.798-2.681 1.578-6.172.753-7.766l-.032-.059.996-.587c.648-.38 1.284-.735 1.836-1.036-.309.846-.535 1.86-.653 3.325-.138 1.721.567 3.945 1.49 4.82.406.385.895.394 1.205.394 1.074 0 1.564-.893 2.103-1.95.662-1.296 1.249-2.804 1.249-2.804s-.737 4.075 1.271 4.075c.731 0 1.467-.949 1.795-1.432l.001.008.056-.095c.076-.116.119-.19.119-.19l.004-.021c.294-.51.946-1.674 1.924-3.594 1.263-2.48 2.475-5.586 2.475-5.586s.113.76.482 2.015c.217.739.679 1.556 1.043 2.339-.293.407-.473.64-.473.64l.005.012a23.86 23.86 0 01-.772.974c-.997 1.188-2.185 2.544-2.344 2.936-.187.461-.143.801.219 1.073.264.199.735.23 1.227.197.896-.06 1.527-.283 1.838-.418a6.156 6.156 0 001.58-.831c.978-.719 1.568-1.748 1.512-3.111-.031-.751-.271-1.495-.574-2.198.089-.128.178-.256.267-.387 1.542-2.255 2.738-4.732 2.738-4.732s.113.76.482 2.015c.187.636.556 1.329.887 2.009-1.45 1.178-2.349 2.547-2.662 3.445-.577 1.661-.125 2.414.723 2.585.384.078.927-.098 1.335-.271a6.172 6.172 0 001.688-.868c.978-.719 1.919-1.726 1.862-3.089-.026-.62-.194-1.236-.422-1.828 1.229-.512 2.821-.797 4.848-.56 4.349.508 5.202 3.223 5.039 4.359-.163 1.137-1.075 1.761-1.38 1.95-.305.189-.398.254-.372.394.037.204.178.196.438.152.358-.06 2.283-.924 2.366-3.022.104-2.658-2.448-5.583-6.968-5.559zm-33.518 11.3c-1.44 1.571-3.453 2.165-4.316 1.665-.932-.54-.563-2.854 1.205-4.521 1.077-1.016 2.468-1.952 3.391-2.529l.893-.537.097-.055-.001-.002.223-.134c.643 2.374.02 4.464-1.492 6.113zm10.493-7.134c-.502 1.223-1.552 4.352-2.191 4.184-.549-.144-.883-2.523-.11-4.863.389-1.178 1.22-2.586 1.709-3.133.786-.879 1.652-1.167 1.862-.81.269.454-.955 3.855-1.27 4.622zm8.67 4.137c-.213.111-.408.181-.498.127-.067-.04.088-.186.088-.186s1.084-1.167 1.512-1.698c.248-.309.537-.676.85-1.086.003.041.004.082.004.122-.004 1.398-1.354 2.341-1.956 2.721zm6.679-1.523c-.159-.113-.132-.478.389-1.614.205-.446.672-1.198 1.485-1.916.094.295.152.578.15.842-.011 1.759-1.266 2.416-2.024 2.688z"/></svg><svg viewBox="0 0 32 32" id="typescript" xmlns="http://www.w3.org/2000/svg"><path d="M0 16v16h32V0H0zm25.786-1.276a4.023 4.023 0 012.005 1.156c.292.312.729.885.766 1.026.01.042-1.38.974-2.224 1.495-.031.021-.156-.109-.292-.313-.411-.599-.844-.859-1.505-.906-.969-.063-1.594.443-1.589 1.292a1.26 1.26 0 00.135.599c.214.443.615.708 1.854 1.245 2.292.984 3.271 1.635 3.88 2.557.682 1.031.833 2.677.375 3.906-.51 1.328-1.771 2.234-3.542 2.531-.547.099-1.849.083-2.438-.026-1.286-.229-2.505-.865-3.255-1.698-.297-.323-.87-1.172-.833-1.229.016-.021.146-.104.292-.188l1.188-.688.922-.536.193.286c.271.411.859.974 1.214 1.161 1.021.542 2.422.464 3.115-.156.281-.234.438-.594.417-.958 0-.37-.047-.536-.24-.813-.25-.354-.755-.656-2.198-1.281-1.651-.714-2.365-1.151-3.01-1.854a4.236 4.236 0 01-.88-1.599c-.12-.453-.151-1.589-.057-2.042.339-1.599 1.547-2.708 3.281-3.036.563-.109 1.875-.068 2.427.068zm-7.51 1.339l.01 1.307h-4.167v11.839h-2.948V17.37H7.01v-1.281c0-.714.016-1.307.036-1.323.016-.021 2.547-.031 5.62-.026l5.594.016z"/></svg></svg>