<?xml version="1.0" encoding="utf-8"?><!DOCTYPE svg PUBLIC "-//W3C//DTD SVG 1.1//EN" "http://www.w3.org/Graphics/SVG/1.1/DTD/svg11.dtd"><svg viewBox="0 0 1010 1010" xmlns="http://www.w3.org/2000/svg" xmlns:xlink="http://www.w3.org/1999/xlink"><style>:root>svg{display:none}:root>svg:target{display:block}</style><svg viewBox="0 0 384 512" id="css" xmlns="http://www.w3.org/2000/svg"><!--! Font Awesome Free 6.0.0-beta2 by @fontawesome - https://fontawesome.com License - https://fontawesome.com/license/free (Icons: CC BY 4.0, Fonts: SIL OFL 1.1, Code: MIT License)--><path d="M0 32l34.9 395.8L192 480l157.1-52.2L384 32H0zm313.1 80l-4.8 47.3L193 208.6l-.3.1h111.5l-12.8 146.6-98.2 28.7-98.8-29.2-6.4-73.9h48.9l3.2 38.3 52.6 13.3 54.7-15.4 3.7-61.6-166.3-.5v-.1l-.2.1-3.6-46.3L193.1 162l6.5-2.7H76.7L70.9 112h242.2z"/></svg><svg viewBox="0 0 64 64" id="dynamic" xmlns="http://www.w3.org/2000/svg"><path d="M50 38c-6.627 0-12 5.373-12 12s5.373 12 12 12 12-5.373 12-12-5.373-12-12-12zm-7 14a2 2 0 11-.001-3.999A2 2 0 0143 52zm7 0a2 2 0 11-.001-3.999A2 2 0 0150 52zm7 0a2 2 0 11-.001-3.999A2 2 0 0157 52zM32 26c6.627 0 12-5.373 12-12S38.627 2 32 2 20 7.373 20 14s5.373 12 12 12zm3.5-14a2 2 0 11.001 3.999A2 2 0 0135.5 12zm-7 0a2 2 0 11.001 3.999A2 2 0 0128.5 12zM14 38C7.373 38 2 43.373 2 50s5.373 12 12 12 12-5.373 12-12-5.373-12-12-12zm0 14a2 2 0 11-.001-3.999A2 2 0 0114 52zM17.599 15.8l-1.201-1.6C9.79 19.164 6 26.745 6 35c0 .348.007.693.021 1.038l1.998-.076C8.007 35.643 8 35.322 8 35c0-7.62 3.499-14.618 9.599-19.2zM26.239 58.305l-.479 1.941c2.03.5 4.129.754 6.24.754s4.21-.254 6.239-.754l-.479-1.941a24.34 24.34 0 01-11.521 0zM57.979 36.038c.014-.345.021-.69.021-1.038 0-8.255-3.79-15.836-10.397-20.8l-1.201 1.6C52.501 20.382 56 27.38 56 35c0 .322-.007.643-.019.962l1.998.076z"/></svg><svg viewBox="0 0 256 256" id="figma" xmlns="http://www.w3.org/2000/svg"><path d="M183.04 94A39.987 39.987 0 00162 20.001H94a39.987 39.987 0 00-21.04 74A39.964 39.964 0 0072.961 162 39.992 39.992 0 10134 196v-39.47A39.98 39.98 0 10183.04 94zM190 60.001a28.031 28.031 0 01-27.98 28L162 88l-.039.001L134 88V32.001h28a28.031 28.031 0 0128 28zm-124 0a28.031 28.031 0 0128-28h28V88H93.981A28.031 28.031 0 0166 60.001zM66 128a28.031 28.031 0 0127.981-28l.019.001h28v55.998L94 156a28.031 28.031 0 01-28-28zm28 95.999A28 28 0 1194 168h28v28a28.031 28.031 0 01-28 27.999zM162 156a28 28 0 01-.039-55.999H162.02A28 28 0 01162 156z"/></svg><svg viewBox="0 0 50 50" id="github" xmlns="http://www.w3.org/2000/svg"><path d="M33 29c-1.797 0-3 1.516-3 4s.89 5.047 3 5c2.219-.05 3.02-2.223 3-5-.016-2.484-1.207-4-3-4zm11.262-11.934c.273-1.343.39-6.101-1.582-11.066 0 0-4.532.496-11.383 5.2-1.434-.4-3.867-.598-6.297-.598-2.43 0-4.86.199-6.3.593C11.851 6.496 7.323 6 7.323 6c-1.976 4.965-1.879 9.61-1.586 11.066C3.418 19.586 2 22.61 2 26.742c0 17.965 14.906 18.254 18.668 18.254.852 0 2.543 0 4.332.004 1.79-.004 3.484-.004 4.332-.004 3.762 0 18.668-.289 18.668-18.254 0-4.133-1.418-7.156-3.738-9.676zM25.14 43H25c-9.43 0-16.844-1.34-16.844-10.504 0-2.195.778-4.23 2.617-5.922 3.07-2.82 8.262-1.328 14.157-1.328h.14c5.895 0 11.09-1.488 14.16 1.328 1.84 1.692 2.614 3.727 2.614 5.922C41.844 41.66 34.57 43 25.14 43zM17 29c-1.793 0-3 2.016-3 4.5s1.207 4.5 3 4.5c1.797 0 3-2.016 3-4.5S18.797 29 17 29z"/></svg><svg viewBox="0 0 456.804 456.804" id="html" xmlns="http://www.w3.org/2000/svg"><path d="M27.405 0l36.542 410.56 163.882 46.244 165.022-46.244L429.398 0H27.405zm322.62 133.904h-192.43l4.283 51.676h183.866l-14.273 155.315-102.499 28.26v.287h-1.143l-103.356-28.547-6.28-79.367h49.965l3.711 39.971 55.959 15.126 56.245-15.126 6.283-65.097H115.625l-13.418-152.46h252.392l-4.574 49.962z"/></svg><svg data-name="Layer 1" id="intuitive" viewBox="0 0 64 64" xmlns="http://www.w3.org/2000/svg"><defs><style>.fcls-1{fill:#190933}</style></defs><path class="fcls-1" d="M61 12h-7v-.29a1 1 0 00-2 0V12h-7a3 3 0 00-3 3v3a1 1 0 00-1 1v2a1 1 0 001 1v2a1 1 0 00-1 1v2a1 1 0 001 1v21a3 3 0 003 3h7v4a1 1 0 002 0v-4h7a3 3 0 003-3V15a3 3 0 00-3-3zm-16 2h16a1 1 0 01.85.5H60.5a2.87 2.87 0 00-2.24 1.16 1.92 1.92 0 01-1.51.84h-7.5a1.92 1.92 0 01-1.51-.84 2.87 2.87 0 00-2.24-1.16h-1.35A1 1 0 0145 14zm17 35a1 1 0 01-1 1H45a1 1 0 01-1-1v-5.5h18zm-18-6.5v-27h1.5a1.92 1.92 0 011.51.84 2.87 2.87 0 002.24 1.16h7.5A2.87 2.87 0 0059 16.34a1.92 1.92 0 011.51-.84H62v27z"/><circle class="fcls-1" cx="53" cy="15.5" r=".5"/><path class="fcls-1" d="M17 16.5a.5.5 0 000-1A8.51 8.51 0 008.5 24a.5.5 0 001 0 7.5 7.5 0 017.5-7.5zM16.5 8v2a.5.5 0 001 0V8a.5.5 0 00-1 0zM10 12.38a.55.55 0 00.25-.07.5.5 0 00.18-.68l-1-1.74a.5.5 0 10-.86.5l1 1.74a.5.5 0 00.43.25zM4.63 17.43a.43.43 0 00.25.07.5.5 0 00.43-.25.5.5 0 00-.18-.68l-1.74-1a.5.5 0 10-.5.86zM.5 24a.5.5 0 00.5.5h2a.5.5 0 000-1H1a.5.5 0 00-.5.5zM3.14 32.5a.45.45 0 00.25-.07l1.74-1a.5.5 0 00.18-.68.5.5 0 00-.68-.18l-1.74 1a.5.5 0 00.25.93zM24.57 9.89l-1 1.74a.5.5 0 00.18.68.55.55 0 00.25.07.5.5 0 00.43-.25l1-1.74a.5.5 0 10-.86-.5zM28.69 17.25a.5.5 0 00.43.25.43.43 0 00.25-.07l1.74-1a.5.5 0 10-.5-.86l-1.74 1a.5.5 0 00-.18.68zM33.5 24a.5.5 0 00-.5-.5h-2a.5.5 0 000 1h2a.5.5 0 00.5-.5zM30.61 32.43a.45.45 0 00.25.07.5.5 0 00.25-.93l-1.74-1a.49.49 0 00-.68.18.5.5 0 00.18.68z"/><path class="fcls-1" d="M15 52h1v.29a1 1 0 002 0V52h1a3 3 0 003-3v-1.18A3 3 0 0024 45v-6a19.23 19.23 0 01.49-4.39 13 13 0 10-15 0A19.23 19.23 0 0110 39v6a3 3 0 002 2.82V49a3 3 0 003 3zm7-7.54A25.26 25.26 0 0112 41v-2-.83a25.31 25.31 0 0010 3.29zm-10-2.28a25.27 25.27 0 009.88 3.28A1 1 0 0121 46h-8a1 1 0 01-1-1zM20 49a1 1 0 01-1 1h-4a1 1 0 01-1-1v-1h6zM6 24a11 11 0 1117 9.23 9.65 9.65 0 01-1.26.7h-.1a11.26 11.26 0 01-9.2 0h-.1a9.65 9.65 0 01-1.26-.7A11 11 0 016 24zm7 12.36h.06a12.89 12.89 0 007.9 0h.06c.39-.13.77-.27 1.14-.43h.06A22 22 0 0022 39v1.46A25.29 25.29 0 0111.9 37c0-.36-.06-.71-.11-1.06h.06c.37.15.75.29 1.15.42zM17 55.29a1 1 0 00-1 1v4a1 1 0 002 0v-4a1 1 0 00-1-1zM39.14 62h-4a1 1 0 000 2h4a1 1 0 000-2zM26.14 63a1 1 0 001 1h4a1 1 0 000-2h-4a1 1 0 00-1 1zM53 59a1 1 0 00-1 1v1a1 1 0 01-.93 1 1 1 0 00.07 2h.07A3 3 0 0054 61v-1a1 1 0 00-1-1zM23.14 62h-4a1 1 0 000 2h4a1 1 0 000-2zM47.14 64a1 1 0 000-2h-4a1 1 0 000 2zM27.86 1a1 1 0 00-1-1h-4a1 1 0 000 2h4a1 1 0 001-1zM43.86 1a1 1 0 00-1-1h-4a1 1 0 000 2h4a1 1 0 001-1zM35.86 1a1 1 0 00-1-1h-4a1 1 0 000 2h4a1 1 0 001-1zM52 3.71v4a1 1 0 102 0v-4a1 1 0 00-2 0zM46.86 0a1 1 0 000 2h4a1 1 0 000-2zM18 4V3a1 1 0 01.93-1 1 1 0 00.92-1.06A1 1 0 0018.79 0 3 3 0 0016 3v1a1 1 0 002 0zM47 48.5a1.5 1.5 0 10-1.5-1.5 1.5 1.5 0 001.5 1.5zm0-2a.5.5 0 11-.5.5.5.5 0 01.5-.5zM52 48.5h7a1.5 1.5 0 000-3h-7a1.5 1.5 0 000 3zm0-2h7a.5.5 0 010 1h-7a.5.5 0 010-1zM58.28 31.5h-4.56a2.23 2.23 0 00-2.22 2.22v.56a2.23 2.23 0 002.22 2.22h2.76a1.19 1.19 0 01.68.21l2.56 1.71a.57.57 0 00.28.08.53.53 0 00.24-.06.51.51 0 00.26-.44v-4.28a2.23 2.23 0 00-2.22-2.22zm1.22 5.57l-1.79-1.2a2.22 2.22 0 00-1.23-.37h-2.76a1.22 1.22 0 01-1.22-1.22v-.56a1.22 1.22 0 011.22-1.22h4.56a1.22 1.22 0 011.22 1.22zM54.5 25.28v-.56a2.23 2.23 0 00-2.22-2.22h-4.56a2.23 2.23 0 00-2.22 2.22V29a.51.51 0 00.26.44.53.53 0 00.24.06.57.57 0 00.28-.08l2.56-1.71a1.19 1.19 0 01.68-.21h2.76a2.23 2.23 0 002.22-2.22zm-6.21 1.59l-1.79 1.2v-3.35a1.22 1.22 0 011.22-1.22h4.56a1.22 1.22 0 011.22 1.22v.56a1.22 1.22 0 01-1.22 1.22h-2.76a2.22 2.22 0 00-1.23.37z"/></svg><svg viewBox="0 0 32 32" id="javascript" xmlns="http://www.w3.org/2000/svg"><path d="M0 0h32v32H0zm29.38 24.37c-.234-1.464-1.188-2.688-4.005-3.833-.979-.458-2.073-.781-2.396-1.521-.12-.438-.141-.677-.063-.938.203-.865 1.219-1.12 2.021-.88.521.161 1 .557 1.302 1.198 1.38-.901 1.38-.901 2.339-1.5-.359-.557-.536-.802-.781-1.036-.839-.943-1.958-1.422-3.776-1.38l-.943.12c-.901.219-1.76.698-2.281 1.339-1.516 1.719-1.078 4.719.76 5.964 1.818 1.359 4.479 1.656 4.823 2.938.318 1.563-1.161 2.063-2.625 1.88-1.078-.24-1.677-.781-2.339-1.781l-2.438 1.401c.276.641.599.917 1.078 1.479 2.318 2.339 8.12 2.219 9.161-1.339.036-.12.318-.943.099-2.198zm-11.979-9.662h-2.995c0 2.583-.016 5.151-.016 7.74 0 1.641.083 3.151-.182 3.615-.443.917-1.573.802-2.089.641-.526-.26-.797-.62-1.104-1.141-.089-.141-.151-.26-.172-.26l-2.432 1.5c.406.839 1 1.563 1.766 2.021 1.141.682 2.672.901 4.276.542 1.042-.302 1.943-.922 2.411-1.88.682-1.24.536-2.76.531-4.464.016-2.74 0-5.479 0-8.24z"/></svg><svg viewBox="0 0 100 100" id="minimalistic" xmlns="http://www.w3.org/2000/svg"><path d="M62.924 94.729c-1.732-1.274-1.918-3.188-1.918-3.188l-.65-4.155H39.642l-.652 4.152s-.181 1.916-1.914 3.19c-1.732 1.274-3.099 2.368-1.732 2.554 1.317.178 13.74.016 14.656 0 .918.016 13.338.178 14.654 0 1.366-.184-.002-1.276-1.73-2.553zM26.666 61.538c5.534-.043 6.223-1.377 8.027-6.933 3.327-8.768 18.309 2.296 9.024 6.136-9.285 3.842-22.585.84-17.051.797z"/><path d="M83.41 3.756c-2.688-2.164-7.135-1.098-9.938 2.38l-28.39 40.336c-2.803 3.477-2.789 2.813-.104 4.975 2.685 2.164 2.038 2.319 4.841-1.158l33.376-36.317c2.803-3.48 2.901-8.053.215-10.216zm-7.301 4.828s-.416-.483-1.799-1.589c2.074-3.387 6.15-2.766 6.15-2.766-3.864 2.282-4.351 4.355-4.351 4.355z"/><path d="M96 17.386H83.516l-5.515 6h16v48h-88v-48h51.19l4.227-6H4a4 4 0 00-4 4v58a4 4 0 004 4h92a4 4 0 004-4v-58a4 4 0 00-4-4z"/></svg><svg fill-rule="evenodd" clip-rule="evenodd" viewBox="0 0 50 50" id="react" xmlns="http://www.w3.org/2000/svg"><path d="M34.555 3.984c-.78-.026-1.596.11-2.414.375-1.637.53-3.352 1.565-5.112 2.996a31.739 31.739 0 00-2.084 1.883 31.578 31.578 0 00-2.039-1.836c-1.758-1.43-3.468-2.464-5.101-2.994-1.633-.53-3.258-.546-4.592.225-1.334.77-2.132 2.184-2.49 3.863-.358 1.679-.319 3.678.04 5.916.126.778.304 1.593.507 2.424-.763.231-1.503.474-2.19.742-2.072.81-3.787 1.778-5.035 2.93-1.249 1.152-2.055 2.55-2.055 4.086 0 1.535.806 2.932 2.055 4.084C5.293 29.83 7.008 30.8 9.08 31.609c.734.287 1.53.545 2.35.79a32.188 32.188 0 00-.698 3.187c-.36 2.24-.397 4.24-.039 5.922.36 1.682 1.157 3.105 2.498 3.879 1.341.774 2.973.755 4.61.224 1.636-.53 3.35-1.562 5.11-2.994a31.643 31.643 0 002.066-1.863c.695.677 1.389 1.314 2.076 1.873 1.758 1.43 3.47 2.463 5.103 2.992 1.633.53 3.258.546 4.592-.224 1.334-.77 2.13-2.185 2.488-3.864.358-1.678.319-3.676-.04-5.914a32.164 32.164 0 00-.7-3.197c.848-.25 1.668-.515 2.424-.81 2.072-.81 3.787-1.78 5.035-2.932 1.249-1.152 2.055-2.549 2.055-4.084 0-1.536-.806-2.934-2.055-4.086-1.248-1.152-2.963-2.12-5.035-2.93a30.001 30.001 0 00-2.223-.752c.205-.836.386-1.657.512-2.44.36-2.24.398-4.24.039-5.923-.359-1.683-1.159-3.103-2.5-3.877-.67-.387-1.414-.575-2.193-.602zm-.092 2.036c.49.013.907.13 1.264.335.714.413 1.241 1.215 1.523 2.536.282 1.32.272 3.104-.06 5.173-.114.709-.28 1.46-.467 2.229a46.398 46.398 0 00-6.676-1.072 48.192 48.192 0 00-3.674-4.518 29.432 29.432 0 011.947-1.76c1.626-1.322 3.165-2.222 4.45-2.638.642-.209 1.204-.299 1.693-.285zm-18.977.005c.492-.013 1.055.077 1.7.286 1.288.417 2.83 1.317 4.457 2.64a29.362 29.362 0 011.906 1.723 48.3 48.3 0 00-3.701 4.556 46.219 46.219 0 00-6.647 1.08 28.875 28.875 0 01-.465-2.216c-.332-2.071-.34-3.856-.058-5.18.282-1.324.814-2.133 1.535-2.549.36-.208.781-.326 1.273-.34zm9.49 6.118c.815.886 1.63 1.856 2.438 2.9A57.87 57.87 0 0025 14.99c-.833 0-1.652.02-2.46.055a45.06 45.06 0 012.437-2.902zM25 17.01c1.36 0 2.685.056 3.975.15a56.84 56.84 0 012.58 4.057 57.157 57.157 0 011.98 3.752 57.171 57.171 0 01-2.008 3.802 57.142 57.142 0 01-2.011 3.215c-1.457.122-2.966.19-4.516.19a54.15 54.15 0 01-4.62-.2 57.175 57.175 0 01-1.978-3.165 57.159 57.159 0 01-2.002-3.795 57.037 57.037 0 012.012-3.817 56.736 56.736 0 012.568-4.035A54.3 54.3 0 0125 17.01zm6.549.4c1.648.206 3.196.491 4.637.834a45.018 45.018 0 01-1.592 4.375c-.414-.798-.843-1.6-1.307-2.402a60.068 60.068 0 00-1.738-2.807zm-13.205.016c-.58.89-1.15 1.799-1.7 2.752-.469.813-.907 1.625-1.326 2.433a45 45 0 01-1.58-4.35 42.914 42.914 0 014.606-.835zm19.82 1.35c.709.214 1.394.438 2.022.683 1.91.746 3.42 1.63 4.4 2.533.98.904 1.404 1.766 1.404 2.602 0 .836-.425 1.698-1.404 2.601-.98.904-2.49 1.787-4.4 2.534-.698.272-1.465.52-2.262.753a49.523 49.523 0 00-2.158-5.466 48.431 48.431 0 002.398-6.24zm-26.361.01a48.324 48.324 0 002.367 6.177A49.526 49.526 0 0012 30.46a27.8 27.8 0 01-2.186-.732c-1.91-.747-3.42-1.63-4.4-2.534-.98-.903-1.404-1.765-1.404-2.601 0-.836.425-1.698 1.404-2.602.98-.904 2.49-1.787 4.4-2.533a27.487 27.487 0 011.989-.674zM25 20c-2.75 0-5 2.25-5 5s2.25 5 5 5 5-2.25 5-5-2.25-5-5-5zm-9.658 7.365c.42.813.858 1.628 1.33 2.446.369.639.746 1.261 1.129 1.873a42.765 42.765 0 01-3.819-.702c.382-1.167.838-2.38 1.36-3.617zm19.277 0c.524 1.24.98 2.455 1.363 3.625a42.87 42.87 0 01-3.83.7c.388-.62.771-1.25 1.145-1.897.468-.811.904-1.621 1.322-2.428zm-21.213 5.559a45.9 45.9 0 005.852.972 49.317 49.317 0 004.29 5.391 29.372 29.372 0 01-1.927 1.744c-1.626 1.323-3.167 2.22-4.451 2.637-1.284.416-2.243.361-2.957-.05-.714-.413-1.24-1.215-1.522-2.536-.281-1.32-.273-3.103.059-5.172.15-.939.376-1.944.656-2.986zm23.155.008a29.92 29.92 0 01.66 3.002c.332 2.07.34 3.855.058 5.18-.282 1.324-.81 2.134-1.531 2.55-.72.416-1.688.47-2.977.053-1.288-.418-2.83-1.317-4.457-2.64a29.44 29.44 0 01-1.941-1.759 49.237 49.237 0 004.32-5.418 46 46 0 005.868-.968zm-14.694 1.17c1.027.056 2.067.093 3.133.093 1.03 0 2.037-.035 3.031-.088a46.038 46.038 0 01-3.084 3.74 46.198 46.198 0 01-3.08-3.745z"/></svg><svg viewBox="0 0 1010 1010" id="responsive" xmlns="http://www.w3.org/2000/svg"><path d="M239.441 536.326h131.182v94.885H190.52c-3.907 0-7.083-3.117-7.083-7.024V590.81c0-3.867 3.176-7.062 7.082-7.062h48.922v-47.422zm-176.04-75.08V62.928c0-4.38 3.59-7.93 7.97-7.93h488.113c4.38 0 7.971 3.55 7.971 7.93v165.86h63.361V27.619C630.816 12.387 618.466 0 603.2 0H27.657C12.389 0 0 12.388 0 27.617V496.912c0 15.268 12.389 27.656 27.657 27.656h342.966v-55.392H71.371c-4.38 0-7.97-3.55-7.97-7.93zm713.59-146.41H421.931v411.891H615.43v23.908h-34.6c-2.763 0-5.05 2.249-5.05 5.01v2.525c0 2.802 2.287 5.05 5.05 5.05h34.6v33.694H421.123c-19.096 0-34.719-15.624-34.719-34.68V279.29c0-19.057 15.623-34.72 34.719-34.72H777.779c19.096 0 34.719 15.663 34.719 34.72v162.625H776.99V314.836zm-169.096-41.07c0-5.09-4.143-9.233-9.233-9.233-5.09 0-9.232 4.143-9.232 9.232 0 5.09 4.142 9.193 9.232 9.193 5.09 0 9.232-4.104 9.232-9.193zM1010 512.731v442.192c-.078 30.418-24.62 54.997-55.076 55.076H686.287c-30.418-.079-54.998-24.658-55.076-55.076V512.732c.078-30.417 24.658-55.037 55.076-55.037h268.637c30.457 0 54.998 24.62 55.076 55.037zm-221.096-34.205a5.826 5.826 0 005.84 5.838h51.723a5.826 5.826 0 005.84-5.838 5.827 5.827 0 00-5.84-5.84h-51.723a5.827 5.827 0 00-5.84 5.84zm48.962 488.114c0-9.587-7.733-17.28-17.28-17.28-9.508 0-17.241 7.693-17.241 17.28 0 9.507 7.733 17.24 17.24 17.24 9.548 0 17.281-7.733 17.281-17.24zm132.09-448.898c0-8.128-6.866-15.032-15.032-15.032H686.287c-8.127 0-14.992 6.904-15.031 15.032V909.867c.039 8.088 6.904 14.992 15.031 14.992h268.637c7.851 0 14.478-6.39 14.953-14.123l.078.079V517.743z"/></svg><svg viewBox="0 0 50 50" id="sass" xmlns="http://www.w3.org/2000/svg"><path d="M43.03 27.802a10.286 10.286 0 00-4.53 1.054c-.464-.926-.934-1.741-1.013-2.347-.092-.707-.199-1.129-.088-1.972.111-.843.599-2.036.591-2.125-.007-.089-.109-.518-1.117-.526-1.008-.007-1.87.194-1.972.46a9.797 9.797 0 00-.416 1.49c-.177.914-2.012 4.174-3.055 5.879-.341-.666-.631-1.252-.691-1.716-.092-.707-.199-1.129-.088-1.972.111-.843.599-2.036.591-2.125-.007-.089-.109-.518-1.117-.526-1.008-.007-1.87.194-1.972.46-.102.266-.21.888-.416 1.49-.207.602-2.647 6.039-3.286 7.448a43.557 43.557 0 01-.809 1.689l-.001-.002-.034.071c-.171.335-.273.521-.273.521l.003.007c-.136.246-.281.475-.353.475-.05 0-.151-.656.022-1.555.363-1.886 1.235-4.828 1.227-4.929-.004-.052.162-.564-.57-.833-.711-.26-.965.174-1.03.175-.063.001-.11.153-.11.153s.793-3.308-1.512-3.308c-1.44 0-3.436 1.576-4.42 3.004a1269.137 1269.137 0 00-4.974 2.727l-.108-.118c-2.794-2.981-7.958-5.089-7.739-9.096.08-1.457.586-5.293 9.924-9.946 7.649-3.812 13.773-2.763 14.831-.438 1.512 3.321-3.273 9.494-11.216 10.384-3.027.339-4.62-.834-5.017-1.271-.417-.46-.479-.481-.635-.394-.254.141-.093.547 0 .789.237.617 1.21 1.712 2.87 2.256 1.46.479 5.013.742 9.311-.92 4.813-1.862 8.571-7.041 7.468-11.37-1.123-4.403-8.423-5.85-15.332-3.396-4.112 1.461-8.563 3.754-11.764 6.747-3.806 3.56-4.412 6.658-4.162 7.952.889 4.6 7.228 7.595 9.767 9.815l-.35.193c-1.273.63-6.105 3.159-7.314 5.831-1.371 3.031.218 5.206 1.271 5.499 3.26.907 6.606-.725 8.404-3.407 1.798-2.681 1.578-6.172.753-7.766l-.032-.059.996-.587c.648-.38 1.284-.735 1.836-1.036-.309.846-.535 1.86-.653 3.325-.138 1.721.567 3.945 1.49 4.82.406.385.895.394 1.205.394 1.074 0 1.564-.893 2.103-1.95.662-1.296 1.249-2.804 1.249-2.804s-.737 4.075 1.271 4.075c.731 0 1.467-.949 1.795-1.432l.001.008.056-.095c.076-.116.119-.19.119-.19l.004-.021c.294-.51.946-1.674 1.924-3.594 1.263-2.48 2.475-5.586 2.475-5.586s.113.76.482 2.015c.217.739.679 1.556 1.043 2.339-.293.407-.473.64-.473.64l.005.012a23.86 23.86 0 01-.772.974c-.997 1.188-2.185 2.544-2.344 2.936-.187.461-.143.801.219 1.073.264.199.735.23 1.227.197.896-.06 1.527-.283 1.838-.418a6.156 6.156 0 001.58-.831c.978-.719 1.568-1.748 1.512-3.111-.031-.751-.271-1.495-.574-2.198.089-.128.178-.256.267-.387 1.542-2.255 2.738-4.732 2.738-4.732s.113.76.482 2.015c.187.636.556 1.329.887 2.009-1.45 1.178-2.349 2.547-2.662 3.445-.577 1.661-.125 2.414.723 2.585.384.078.927-.098 1.335-.271a6.172 6.172 0 001.688-.868c.978-.719 1.919-1.726 1.862-3.089-.026-.62-.194-1.236-.422-1.828 1.229-.512 2.821-.797 4.848-.56 4.349.508 5.202 3.223 5.039 4.359-.163 1.137-1.075 1.761-1.38 1.95-.305.189-.398.254-.372.394.037.204.178.196.438.152.358-.06 2.283-.924 2.366-3.022.104-2.658-2.448-5.583-6.968-5.559zm-33.518 11.3c-1.44 1.571-3.453 2.165-4.316 1.665-.932-.54-.563-2.854 1.205-4.521 1.077-1.016 2.468-1.952 3.391-2.529l.893-.537.097-.055-.001-.002.223-.134c.643 2.374.02 4.464-1.492 6.113zm10.493-7.134c-.502 1.223-1.552 4.352-2.191 4.184-.549-.144-.883-2.523-.11-4.863.389-1.178 1.22-2.586 1.709-3.133.786-.879 1.652-1.167 1.862-.81.269.454-.955 3.855-1.27 4.622zm8.67 4.137c-.213.111-.408.181-.498.127-.067-.04.088-.186.088-.186s1.084-1.167 1.512-1.698c.248-.309.537-.676.85-1.086.003.041.004.082.004.122-.004 1.398-1.354 2.341-1.956 2.721zm6.679-1.523c-.159-.113-.132-.478.389-1.614.205-.446.672-1.198 1.485-1.916.094.295.152.578.15.842-.011 1.759-1.266 2.416-2.024 2.688z"/></svg><svg viewBox="0 0 100 100" id="speed" xmlns="http://www.w3.org/2000/svg"><path d="M94 6H6a6 6 0 00-6 6v76c0 3.312 2.687 6 6 6h88a6 6 0 006-6V12a6 6 0 00-6-6zm-15 4c2.205 0 4 1.794 4 4s-1.795 4-4 4-4-1.794-4-4 1.795-4 4-4zm-11 0c2.205 0 4 1.794 4 4s-1.795 4-4 4-4-1.794-4-4 1.795-4 4-4zm26 78H6V22h88v66zm-4-70c-2.205 0-4-1.794-4-4s1.795-4 4-4 4 1.794 4 4-1.795 4-4 4z"/><path d="M47.914 32.733c1.387-.187 2.799-.169 4.186-.008.014 3.851.006 7.699 0 11.55-1.404-.071-2.809-.078-4.208.038.06-3.861.001-7.723.022-11.58zM32.907 36.473c1.258-.543 2.517-1.085 3.803-1.562a575.917 575.917 0 014.456 10.732c-1.346.392-2.58 1.069-3.894 1.542-1.41-3.588-2.999-7.106-4.365-10.712zM58.855 45.626a599.415 599.415 0 014.449-10.695c1.293.446 2.553.994 3.807 1.536-1.37 3.604-2.952 7.127-4.373 10.713-1.306-.482-2.556-1.117-3.883-1.554zM20.54 45.884c.713-1.15 1.875-2.111 2.925-3.009 2.658 2.797 5.515 5.404 8.123 8.238-1.086.861-1.989 1.914-2.973 2.887-2.666-2.732-5.397-5.4-8.075-8.116zM76.538 42.946a11.33 11.33 0 012.937 2.925c-2.682 2.727-5.401 5.413-8.098 8.122-.941-1.03-1.947-1.993-2.953-2.957 2.703-2.699 5.39-5.412 8.114-8.09zM14.074 55.311c3.609 1.338 7.111 2.953 10.695 4.363-.434 1.325-1.152 2.547-1.533 3.896-3.578-1.482-7.164-2.952-10.735-4.451a75.454 75.454 0 011.573-3.808zM75.238 59.674c3.588-1.41 7.096-3.021 10.707-4.363a54.135 54.135 0 011.555 3.807 965.31 965.31 0 01-10.712 4.449c-.411-1.342-1.104-2.57-1.55-3.893zM50.882 70.779a5 5 0 00-6.049 4.887 4.998 4.998 0 009.995.059l8.253-12.806-12.199 7.86z"/></svg><svg viewBox="0 0 32 32" id="typescript" xmlns="http://www.w3.org/2000/svg"><path d="M0 16v16h32V0H0zm25.786-1.276a4.023 4.023 0 012.005 1.156c.292.312.729.885.766 1.026.01.042-1.38.974-2.224 1.495-.031.021-.156-.109-.292-.313-.411-.599-.844-.859-1.505-.906-.969-.063-1.594.443-1.589 1.292a1.26 1.26 0 00.135.599c.214.443.615.708 1.854 1.245 2.292.984 3.271 1.635 3.88 2.557.682 1.031.833 2.677.375 3.906-.51 1.328-1.771 2.234-3.542 2.531-.547.099-1.849.083-2.438-.026-1.286-.229-2.505-.865-3.255-1.698-.297-.323-.87-1.172-.833-1.229.016-.021.146-.104.292-.188l1.188-.688.922-.536.193.286c.271.411.859.974 1.214 1.161 1.021.542 2.422.464 3.115-.156.281-.234.438-.594.417-.958 0-.37-.047-.536-.24-.813-.25-.354-.755-.656-2.198-1.281-1.651-.714-2.365-1.151-3.01-1.854a4.236 4.236 0 01-.88-1.599c-.12-.453-.151-1.589-.057-2.042.339-1.599 1.547-2.708 3.281-3.036.563-.109 1.875-.068 2.427.068zm-7.51 1.339l.01 1.307h-4.167v11.839h-2.948V17.37H7.01v-1.281c0-.714.016-1.307.036-1.323.016-.021 2.547-.031 5.62-.026l5.594.016z"/></svg></svg>