<?xml version="1.0" ?><svg data-name="Layer 1" id="Layer_1" viewBox="0 0 64 64" xmlns="http://www.w3.org/2000/svg"><defs><style>.cls-1{fill:#190933;}</style></defs><title/><path class="cls-1" d="M61,12H54v-.29a1,1,0,0,0-2,0V12H45a3,3,0,0,0-3,3v3a1,1,0,0,0-1,1v2a1,1,0,0,0,1,1v2a1,1,0,0,0-1,1v2a1,1,0,0,0,1,1V49a3,3,0,0,0,3,3h7v4a1,1,0,0,0,2,0V52h7a3,3,0,0,0,3-3V15A3,3,0,0,0,61,12ZM45,14H61a1,1,0,0,1,.85.5H60.5a2.87,2.87,0,0,0-2.24,1.16,1.92,1.92,0,0,1-1.51.84h-7.5a1.92,1.92,0,0,1-1.51-.84A2.87,2.87,0,0,0,45.5,14.5H44.15A1,1,0,0,1,45,14ZM62,49a1,1,0,0,1-1,1H45a1,1,0,0,1-1-1V43.5H62ZM44,42.5v-27h1.5a1.92,1.92,0,0,1,1.51.84,2.87,2.87,0,0,0,2.24,1.16h7.5A2.87,2.87,0,0,0,59,16.34a1.92,1.92,0,0,1,1.51-.84H62v27Z"/><circle class="cls-1" cx="53" cy="15.5" r="0.5"/><path class="cls-1" d="M17,16.5a.5.5,0,0,0,0-1A8.51,8.51,0,0,0,8.5,24a.5.5,0,0,0,1,0A7.5,7.5,0,0,1,17,16.5Z"/><path class="cls-1" d="M16.5,8v2a.5.5,0,0,0,1,0V8a.5.5,0,0,0-1,0Z"/><path class="cls-1" d="M10,12.38a.55.55,0,0,0,.25-.07.5.5,0,0,0,.18-.68l-1-1.74a.5.5,0,1,0-.86.5l1,1.74A.5.5,0,0,0,10,12.38Z"/><path class="cls-1" d="M4.63,17.43a.43.43,0,0,0,.25.07.5.5,0,0,0,.43-.25.5.5,0,0,0-.18-.68l-1.74-1a.5.5,0,1,0-.5.86Z"/><path class="cls-1" d="M.5,24a.5.5,0,0,0,.5.5H3a.5.5,0,0,0,0-1H1A.5.5,0,0,0,.5,24Z"/><path class="cls-1" d="M3.14,32.5a.45.45,0,0,0,.25-.07l1.74-1a.5.5,0,0,0,.18-.68.5.5,0,0,0-.68-.18l-1.74,1a.5.5,0,0,0,.25.93Z"/><path class="cls-1" d="M24.57,9.89l-1,1.74a.5.5,0,0,0,.18.68.55.55,0,0,0,.25.07.5.5,0,0,0,.43-.25l1-1.74a.5.5,0,1,0-.86-.5Z"/><path class="cls-1" d="M28.69,17.25a.5.5,0,0,0,.43.25.43.43,0,0,0,.25-.07l1.74-1a.5.5,0,1,0-.5-.86l-1.74,1A.5.5,0,0,0,28.69,17.25Z"/><path class="cls-1" d="M33.5,24a.5.5,0,0,0-.5-.5H31a.5.5,0,0,0,0,1h2A.5.5,0,0,0,33.5,24Z"/><path class="cls-1" d="M30.61,32.43a.45.45,0,0,0,.25.07.5.5,0,0,0,.25-.93l-1.74-1a.49.49,0,0,0-.68.18.5.5,0,0,0,.18.68Z"/><path class="cls-1" d="M15,52h1v.29a1,1,0,0,0,2,0V52h1a3,3,0,0,0,3-3V47.82A3,3,0,0,0,24,45V39a19.23,19.23,0,0,1,.49-4.39,13,13,0,1,0-15,0A19.23,19.23,0,0,1,10,39v6a3,3,0,0,0,2,2.82V49A3,3,0,0,0,15,52Zm7-7.54A25.26,25.26,0,0,1,12,41V39c0-.28,0-.55,0-.83a25.31,25.31,0,0,0,10,3.29ZM12,42.18a25.27,25.27,0,0,0,9.88,3.28A1,1,0,0,1,21,46H13a1,1,0,0,1-1-1ZM20,49a1,1,0,0,1-1,1H15a1,1,0,0,1-1-1V48h6ZM6,24a11,11,0,1,1,17,9.23,9.65,9.65,0,0,1-1.26.7l-.1,0a11.26,11.26,0,0,1-9.2,0l-.1,0a9.65,9.65,0,0,1-1.26-.7A11,11,0,0,1,6,24Zm7,12.36.06,0a12.89,12.89,0,0,0,7.9,0l.06,0c.39-.13.77-.27,1.14-.43l.06,0A22,22,0,0,0,22,39v1.46A25.29,25.29,0,0,1,11.9,37c0-.36-.06-.71-.11-1.06l.06,0C12.22,36.09,12.6,36.23,13,36.36Z"/><path class="cls-1" d="M17,55.29a1,1,0,0,0-1,1v4a1,1,0,0,0,2,0v-4A1,1,0,0,0,17,55.29Z"/><path class="cls-1" d="M39.14,62h-4a1,1,0,0,0,0,2h4a1,1,0,0,0,0-2Z"/><path class="cls-1" d="M26.14,63a1,1,0,0,0,1,1h4a1,1,0,0,0,0-2h-4A1,1,0,0,0,26.14,63Z"/><path class="cls-1" d="M53,59a1,1,0,0,0-1,1v1a1,1,0,0,1-.93,1,1,1,0,0,0,.07,2h.07A3,3,0,0,0,54,61V60A1,1,0,0,0,53,59Z"/><path class="cls-1" d="M23.14,62h-4a1,1,0,0,0,0,2h4a1,1,0,0,0,0-2Z"/><path class="cls-1" d="M47.14,64a1,1,0,0,0,0-2h-4a1,1,0,0,0,0,2Z"/><path class="cls-1" d="M27.86,1a1,1,0,0,0-1-1h-4a1,1,0,0,0,0,2h4A1,1,0,0,0,27.86,1Z"/><path class="cls-1" d="M43.86,1a1,1,0,0,0-1-1h-4a1,1,0,0,0,0,2h4A1,1,0,0,0,43.86,1Z"/><path class="cls-1" d="M35.86,1a1,1,0,0,0-1-1h-4a1,1,0,0,0,0,2h4A1,1,0,0,0,35.86,1Z"/><path class="cls-1" d="M52,3.71v4a1,1,0,1,0,2,0v-4a1,1,0,0,0-2,0Z"/><path class="cls-1" d="M46.86,0a1,1,0,0,0,0,2h4a1,1,0,0,0,0-2Z"/><path class="cls-1" d="M18,4V3a1,1,0,0,1,.93-1A1,1,0,0,0,19.85.94,1,1,0,0,0,18.79,0,3,3,0,0,0,16,3V4a1,1,0,0,0,2,0Z"/><path class="cls-1" d="M47,48.5A1.5,1.5,0,1,0,45.5,47,1.5,1.5,0,0,0,47,48.5Zm0-2a.5.5,0,1,1-.5.5A.5.5,0,0,1,47,46.5Z"/><path class="cls-1" d="M52,48.5h7a1.5,1.5,0,0,0,0-3H52a1.5,1.5,0,0,0,0,3Zm0-2h7a.5.5,0,0,1,0,1H52a.5.5,0,0,1,0-1Z"/><path class="cls-1" d="M58.28,31.5H53.72a2.23,2.23,0,0,0-2.22,2.22v.56a2.23,2.23,0,0,0,2.22,2.22h2.76a1.19,1.19,0,0,1,.68.21l2.56,1.71a.57.57,0,0,0,.28.08.53.53,0,0,0,.24-.06A.51.51,0,0,0,60.5,38V33.72A2.23,2.23,0,0,0,58.28,31.5Zm1.22,5.57-1.79-1.2a2.22,2.22,0,0,0-1.23-.37H53.72a1.22,1.22,0,0,1-1.22-1.22v-.56a1.22,1.22,0,0,1,1.22-1.22h4.56a1.22,1.22,0,0,1,1.22,1.22Z"/><path class="cls-1" d="M54.5,25.28v-.56a2.23,2.23,0,0,0-2.22-2.22H47.72a2.23,2.23,0,0,0-2.22,2.22V29a.51.51,0,0,0,.26.44.53.53,0,0,0,.24.06.57.57,0,0,0,.28-.08l2.56-1.71a1.19,1.19,0,0,1,.68-.21h2.76A2.23,2.23,0,0,0,54.5,25.28Zm-6.21,1.59-1.79,1.2V24.72a1.22,1.22,0,0,1,1.22-1.22h4.56a1.22,1.22,0,0,1,1.22,1.22v.56a1.22,1.22,0,0,1-1.22,1.22H49.52A2.22,2.22,0,0,0,48.29,26.87Z"/></svg>