<?xml version="1.0" ?><svg height="32" id="svg4050" version="1.1" viewBox="0 0 32 32.000001" width="32" xmlns="http://www.w3.org/2000/svg" xmlns:cc="http://creativecommons.org/ns#" xmlns:dc="http://purl.org/dc/elements/1.1/" xmlns:inkscape="http://www.inkscape.org/namespaces/inkscape" xmlns:rdf="http://www.w3.org/1999/02/22-rdf-syntax-ns#" xmlns:sodipodi="http://sodipodi.sourceforge.net/DTD/sodipodi-0.dtd" xmlns:svg="http://www.w3.org/2000/svg"><defs id="defs4052"/><g id="layer1" transform="translate(0,-1020.3622)"><path d="M 13.5 1.9980469 A 0.50005 0.50005 0 0 0 13.005859 2.4238281 L 12.535156 5.5957031 C 12.041277 5.7605031 11.561308 5.9585063 11.095703 6.1914062 L 8.5214844 4.28125 A 0.50005 0.50005 0 0 0 7.8691406 4.3300781 L 4.3320312 7.8671875 A 0.50005 0.50005 0 0 0 4.2832031 8.5175781 L 6.1914062 11.089844 C 5.9586941 11.556544 5.7599443 12.038303 5.5957031 12.533203 L 2.4277344 13.001953 A 0.50005 0.50005 0 0 0 2 13.498047 L 2 18.498047 A 0.50005 0.50005 0 0 0 2.4257812 18.992188 L 5.5996094 19.462891 C 5.7641086 19.955791 5.9628723 20.435691 6.1953125 20.900391 L 4.2832031 23.476562 A 0.50005 0.50005 0 0 0 4.3320312 24.128906 L 7.8691406 27.666016 A 0.50005 0.50005 0 0 0 8.5214844 27.712891 L 11.091797 25.806641 C 11.559001 26.039641 12.041568 26.237844 12.537109 26.402344 L 13.001953 29.542969 A 0.50004997 0.50004997 0 0 0 13.001953 29.546875 L 13.005859 29.570312 A 0.50004997 0.50004997 0 0 0 13.576172 29.998047 L 18.423828 29.998047 A 0.50004997 0.50004997 0 0 0 19 29.53125 L 19.464844 26.398438 C 19.958723 26.233637 20.438692 26.035634 20.904297 25.802734 L 23.478516 27.712891 A 0.50005 0.50005 0 0 0 24.130859 27.664062 L 27.667969 24.126953 A 0.50005 0.50005 0 0 0 27.716797 23.476562 L 25.808594 20.902344 C 26.041306 20.435644 26.240055 19.955837 26.404297 19.460938 L 29.572266 18.990234 A 0.50005 0.50005 0 0 0 30 18.498047 L 30 13.498047 A 0.50005 0.50005 0 0 0 29.574219 13.001953 L 26.400391 12.53125 C 26.235891 12.03835 26.037127 11.55845 25.804688 11.09375 L 27.716797 8.5175781 A 0.50005 0.50005 0 0 0 27.667969 7.8671875 L 24.130859 4.3300781 A 0.50005 0.50005 0 0 0 23.478516 4.2792969 L 20.908203 6.1855469 C 20.440999 5.9525469 19.958432 5.7543438 19.462891 5.5898438 L 18.994141 2.421875 A 0.50005 0.50005 0 0 0 18.5 1.9980469 L 13.5 1.9980469 z M 13.931641 2.9980469 L 18.068359 2.9980469 L 18.515625 6.015625 A 0.50005 0.50005 0 0 0 18.867188 6.421875 C 19.518148 6.615975 20.147825 6.8755656 20.746094 7.1972656 A 0.50005 0.50005 0 0 0 21.28125 7.1582031 L 23.728516 5.3417969 L 26.65625 8.2675781 L 24.833984 10.722656 A 0.50005 0.50005 0 0 0 24.796875 11.257812 C 25.118108 11.853813 25.377719 12.480506 25.572266 13.128906 A 0.50005 0.50005 0 0 0 25.976562 13.480469 L 29 13.927734 L 29 18.066406 L 25.982422 18.511719 A 0.50005 0.50005 0 0 0 25.576172 18.863281 C 25.382091 19.514281 25.122472 20.143988 24.800781 20.742188 A 0.50005 0.50005 0 0 0 24.837891 21.277344 L 26.65625 23.726562 L 23.728516 26.652344 L 21.275391 24.832031 A 0.50005 0.50005 0 0 0 20.740234 24.792969 C 20.185632 25.091911 19.600881 25.332 19 25.521484 L 19 21.185547 C 20.790346 20.146019 22 18.212666 22 15.998047 C 21.9974 13.746747 20.731914 11.685409 18.726562 10.662109 A 0.50005 0.50005 0 0 0 18 11.105469 L 18 15.714844 L 16 16.914062 L 14 15.714844 L 14 11.099609 A 0.50005 0.50005 0 0 0 13.484375 10.599609 A 0.50005 0.50005 0 0 0 13.273438 10.654297 C 11.266063 11.678697 10.000237 13.744347 10 15.998047 C 10 18.212666 11.209654 20.146019 13 21.185547 L 13 25.525391 C 12.396883 25.336301 11.810766 25.096309 11.253906 24.796875 A 0.50005 0.50005 0 0 0 10.71875 24.835938 L 8.2714844 26.652344 L 5.34375 23.726562 L 7.1660156 21.271484 A 0.50005 0.50005 0 0 0 7.203125 20.736328 C 6.8818919 20.140328 6.6222814 19.513634 6.4277344 18.865234 A 0.50005 0.50005 0 0 0 6.0234375 18.513672 L 3 18.066406 L 3 13.929688 L 6.0175781 13.482422 A 0.50005 0.50005 0 0 0 6.4238281 13.130859 C 6.6179086 12.479859 6.877528 11.850153 7.1992188 11.251953 A 0.50005 0.50005 0 0 0 7.1621094 10.716797 L 5.34375 8.2675781 L 8.2714844 5.3417969 L 10.724609 7.1621094 A 0.50005 0.50005 0 0 0 11.259766 7.2011719 C 11.855661 6.8799719 12.484404 6.6184281 13.132812 6.4238281 A 0.50005 0.50005 0 0 0 13.482422 6.0195312 L 13.931641 2.9980469 z M 13 12.216797 L 13 15.998047 A 0.50005 0.50005 0 0 0 13.242188 16.425781 L 15.742188 17.925781 A 0.50005 0.50005 0 0 0 16.257812 17.925781 L 18.757812 16.425781 A 0.50005 0.50005 0 0 0 19 15.998047 L 19 12.222656 C 20.170508 13.158756 20.998219 14.462847 21 15.998047 C 21 18.765347 18.767346 20.998047 16 20.998047 C 13.232654 20.998047 11 18.765347 11 15.998047 C 11.000162 14.461147 11.828321 13.154097 13 12.216797 z M 14 21.646484 C 14.626956 21.869355 15.29766 21.998047 16 21.998047 C 16.70234 21.998047 17.373044 21.869355 18 21.646484 L 18 28.998047 L 14 28.998047 L 14 21.646484 z " id="rect4745" style="color:#000000;font-style:normal;font-variant:normal;font-weight:normal;font-stretch:normal;font-size:medium;line-height:normal;font-family:sans-serif;text-indent:0;text-align:start;text-decoration:none;text-decoration-line:none;text-decoration-style:solid;text-decoration-color:#000000;letter-spacing:normal;word-spacing:normal;text-transform:none;direction:ltr;block-progression:tb;writing-mode:lr-tb;baseline-shift:baseline;text-anchor:start;white-space:normal;clip-rule:nonzero;display:inline;overflow:visible;visibility:visible;opacity:1;isolation:auto;mix-blend-mode:normal;color-interpolation:sRGB;color-interpolation-filters:linearRGB;solid-color:#000000;solid-opacity:1;fill:#000000;fill-opacity:1;fill-rule:nonzero;stroke:none;stroke-width:1;stroke-linecap:round;stroke-linejoin:round;stroke-miterlimit:4.0999999;stroke-dasharray:none;stroke-dashoffset:0;stroke-opacity:1;color-rendering:auto;image-rendering:auto;shape-rendering:auto;text-rendering:auto;enable-background:accumulate" transform="translate(0,1020.3622)"/></g></svg>