<?xml version="1.0" standalone="no"?>
<!DOCTYPE svg PUBLIC "-//W3C//DTD SVG 20010904//EN"
 "http://www.w3.org/TR/2001/REC-SVG-20010904/DTD/svg10.dtd">
<svg version="1.0" xmlns="http://www.w3.org/2000/svg"
 width="500.000000pt" height="500.000000pt" viewBox="0 0 500.000000 500.000000"
 preserveAspectRatio="xMidYMid meet">

<g transform="translate(0.000000,500.000000) scale(0.100000,-0.100000)"
fill="#000000" stroke="none">
<path d="M0 2500 l0 -2500 2500 0 2500 0 0 2500 0 2500 -2500 0 -2500 0 0
-2500z m2963 1407 c208 -41 402 -118 532 -212 70 -50 187 -169 234 -238 51
-75 99 -184 127 -292 24 -89 27 -119 27 -270 1 -143 -3 -184 -21 -258 -98
-394 -382 -645 -847 -748 -92 -20 -133 -22 -522 -26 l-423 -5 0 -394 0 -394
-330 0 -330 0 0 1431 0 1430 733 -4 c642 -3 743 -5 820 -20z"/>
<path d="M2070 2894 l0 -496 358 4 c389 5 410 7 539 68 178 82 274 280 243
498 -34 243 -186 376 -471 412 -46 5 -215 10 -376 10 l-293 0 0 -496z"/>
</g>
</svg>
